# xmcd
#
# Track frame offsets: 
#        150
#        19366
#        39138
#        57463
#        77399
#        96806
#        115600
#        134185
#        150698
#        168274
#
# Disc length: 2522 seconds
#
# Revision: 0
# Processed by: cddbd v1.5.2PL0 Copyright (c) Steve Scherf et al.
# Submitted via: ExactAudioCopy v1.0b4
#
DISCID=7709d80a
DTITLE=Sheryn Regis - What I Do Best
DYEAR=2005
DGENRE=Ballad
TTITLE0=What I do best
TTITLE1=Sa piling mo
TTITLE2=I don't want you to go
TTITLE3=Sheryn Regis and Erik Santos - Now that I have you
TTITLE4=Hindi ko kayang iwan ka
TTITLE5=Sabihin mo sa akin
TTITLE6=When you tell me that you love me
TTITLE7=Dahil nagmamahal
TTITLE8=If ever I see you again
TTITLE9=(Try it) On my own
EXTD=
EXTT0=
EXTT1=
EXTT2=
EXTT3=
EXTT4=
EXTT5=
EXTT6=
EXTT7=
EXTT8=
EXTT9=
PLAYORDER=
